<?xml version="1.0" standalone="no"?>
<!DOCTYPE svg PUBLIC "-//W3C//DTD SVG 20010904//EN"
 "http://www.w3.org/TR/2001/REC-SVG-20010904/DTD/svg10.dtd">
<svg version="1.0" xmlns="http://www.w3.org/2000/svg"
 width="728.000000pt" height="728.000000pt" viewBox="0 0 728.000000 728.000000"
 preserveAspectRatio="xMidYMid meet">
<metadata>
Created by potrace 1.11, written by Peter Selinger 2001-2013
</metadata>
<g transform="translate(0.000000,728.000000) scale(0.100000,-0.100000)"
fill="#000000" stroke="none">
<path d="M3431 7229 c-35 -61 -38 -85 -15 -110 23 -25 10 -59 -24 -60 -47 -3
-55 -2 -157 24 -122 31 -144 34 -217 24 -47 -7 -58 -12 -58 -27 0 -14 9 -20
35 -22 57 -5 45 -22 -20 -29 -33 -4 -72 -11 -87 -17 -16 -7 -28 -9 -28 -6 0 2
-9 0 -20 -6 -12 -6 -17 -16 -13 -26 5 -13 14 -15 42 -9 75 15 127 14 191 -6
79 -24 130 -47 130 -59 0 -4 -39 -30 -87 -56 -49 -26 -101 -57 -118 -70 -16
-12 -57 -36 -90 -53 -33 -17 -79 -42 -102 -55 -52 -31 -106 -46 -185 -50 -35
-2 -70 -4 -80 -5 -9 -1 -21 -15 -27 -33 -12 -34 -84 -161 -108 -189 -22 -26
-15 -129 10 -156 27 -31 61 -29 169 7 100 34 118 36 118 16 0 -20 -18 -31
-100 -59 -64 -22 -75 -29 -78 -51 -3 -20 2 -27 23 -32 47 -12 148 2 195 27 52
27 158 33 219 12 20 -7 50 -15 67 -17 17 -3 44 -10 59 -16 15 -6 61 -9 104 -6
99 5 131 -10 131 -64 0 -14 -26 -102 -58 -196 -62 -179 -82 -215 -209 -381
-35 -45 -106 -121 -157 -168 -73 -67 -96 -94 -106 -128 -7 -23 -17 -49 -24
-58 -21 -30 -123 -107 -204 -154 -50 -28 -97 -64 -119 -92 -33 -40 -79 -74
-109 -79 -6 -1 -36 11 -65 27 -30 16 -103 53 -164 83 -71 36 -145 83 -210 135
-163 131 -260 148 -393 68 -59 -35 -80 -66 -107 -162 -10 -33 -31 -92 -46
-131 -16 -39 -30 -95 -32 -125 -2 -30 -9 -67 -16 -84 -7 -16 -22 -64 -33 -105
-11 -41 -31 -97 -43 -125 -29 -63 -42 -107 -50 -170 -3 -27 -20 -80 -36 -117
-31 -72 -34 -95 -42 -448 -2 -77 20 -148 47 -151 41 -4 75 24 141 116 53 74
69 126 54 179 -6 21 -12 46 -14 55 -2 9 -13 54 -25 101 -29 107 -29 204 -2
288 25 77 95 172 127 172 13 0 43 20 73 49 52 50 64 78 77 171 9 65 14 79 36
90 35 19 83 -15 154 -109 64 -84 158 -174 213 -202 62 -32 49 -53 -27 -44 -31
3 -105 15 -166 27 -145 27 -256 29 -304 6 -66 -31 -120 -97 -156 -191 -23 -61
-16 -153 24 -292 35 -120 101 -404 101 -432 0 -11 6 -38 14 -60 8 -22 17 -59
20 -84 4 -24 8 -53 10 -64 3 -11 5 -25 5 -32 1 -7 31 -43 69 -80 62 -63 112
-137 112 -167 0 -19 77 -125 119 -163 50 -47 87 -65 123 -61 51 5 92 97 91
203 -1 126 -59 222 -159 259 -63 24 -64 25 -66 72 -1 27 -10 51 -32 79 -43 55
-59 94 -91 226 -15 62 -38 141 -51 174 -13 33 -25 63 -26 67 0 4 -4 29 -8 55
-16 106 60 171 128 108 15 -14 49 -36 77 -49 364 -175 365 -176 365 -204 0
-23 8 -32 53 -54 87 -44 135 -54 245 -53 l103 0 -7 -25 c-4 -14 -6 -33 -6 -44
1 -28 64 -117 129 -183 32 -32 85 -87 118 -122 95 -101 258 -222 402 -300 132
-71 338 -209 419 -280 58 -51 154 -179 155 -208 1 -13 2 -26 4 -30 1 -5 5 -21
10 -38 5 -16 18 -37 29 -47 31 -26 103 -58 129 -58 31 0 94 68 100 109 3 17
16 50 30 74 26 44 33 75 43 172 7 81 21 114 51 121 33 9 49 -8 29 -29 -9 -9
-16 -18 -16 -20 0 -3 -7 -22 -16 -43 -9 -22 -18 -64 -20 -94 -6 -97 -14 -118
-86 -242 -75 -129 -103 -200 -114 -295 -18 -149 -2 -272 53 -392 115 -253 183
-374 251 -451 40 -44 56 -83 48 -114 -9 -37 -145 -215 -259 -339 -81 -88 -112
-115 -157 -134 -58 -26 -100 -59 -100 -78 0 -13 -99 -133 -168 -204 -51 -53
-86 -117 -107 -198 -33 -127 -17 -153 97 -153 68 0 84 4 146 36 39 19 73 42
76 50 3 8 10 13 14 10 15 -9 72 33 83 62 6 15 11 57 12 95 1 56 3 66 17 62 39
-12 162 138 175 215 6 35 13 44 61 72 31 19 58 44 65 59 12 31 153 173 214
216 22 16 69 46 105 67 83 48 92 66 80 163 -10 78 -24 109 -92 205 -47 66 -54
131 -25 228 28 95 42 116 100 153 29 19 59 40 67 48 8 8 42 37 75 64 73 61 73
61 160 160 39 44 75 84 81 90 7 5 32 46 57 90 76 137 104 211 113 311 10 98 9
95 29 110 16 12 21 11 36 -2 27 -25 32 -63 33 -279 1 -205 8 -245 42 -245 12
0 14 10 8 59 -4 34 -2 73 4 92 13 38 17 63 27 143 7 50 27 87 41 73 11 -11 31
-106 29 -133 -2 -16 -6 -52 -9 -79 -6 -59 -10 -70 -66 -190 -54 -115 -68 -160
-65 -221 2 -68 13 -101 35 -107 31 -8 44 16 30 58 -11 33 -9 38 23 83 19 26
49 72 66 102 18 30 48 80 66 110 19 30 39 78 45 105 5 28 13 61 16 75 3 14 8
70 11 125 6 103 -9 178 -42 215 -7 8 -18 27 -24 43 -9 23 -8 27 7 27 23 0 64
-44 91 -97 18 -37 30 -93 45 -218 6 -47 10 -62 44 -137 36 -82 77 -76 50 7
-15 45 -16 114 -3 225 13 111 9 137 -35 223 -22 44 -38 83 -35 87 3 5 20 12
38 15 42 10 142 60 185 94 66 52 168 210 208 323 32 92 26 360 -11 528 -65
288 -52 416 61 605 23 39 47 89 54 112 12 38 11 45 -5 63 -25 28 -43 26 -37
-5 2 -14 0 -25 -6 -25 -5 0 -21 -17 -35 -37 -13 -21 -46 -60 -71 -88 -26 -27
-59 -75 -74 -107 -72 -149 -139 -12 -93 191 4 20 43 90 85 154 100 152 143
240 150 302 8 86 -14 94 -44 15 -7 -19 -22 -47 -32 -62 -10 -14 -18 -31 -18
-37 0 -6 -24 -29 -52 -52 -47 -37 -87 -77 -211 -214 -48 -52 -58 -38 -55 70 5
165 104 378 218 470 54 44 104 98 93 102 -57 20 -295 -191 -376 -335 -76 -136
-89 -183 -91 -324 0 -68 2 -135 6 -150 33 -134 61 -235 83 -298 15 -41 28 -86
31 -100 2 -14 7 -36 9 -50 3 -14 7 -43 11 -65 3 -22 7 -47 9 -55 15 -52 34
-246 31 -305 -13 -213 -52 -295 -215 -451 -35 -34 -96 -80 -136 -102 -60 -34
-84 -41 -143 -45 l-71 -5 -7 32 c-12 54 -55 127 -147 251 -123 163 -288 315
-493 452 -145 98 -351 276 -430 372 -40 48 -108 147 -153 221 -69 113 -88 150
-96 190 -1 3 -7 25 -14 49 -14 48 -10 126 6 142 7 7 32 -1 77 -25 44 -24 80
-36 106 -36 57 0 154 -47 260 -126 62 -47 115 -62 124 -38 9 23 7 27 -9 20
-26 -10 -44 4 -80 65 -20 32 -53 71 -73 87 -41 31 -116 64 -126 55 -3 -4 -6 1
-6 11 0 26 78 13 137 -24 86 -53 105 -62 119 -56 23 9 16 23 -33 71 -49 47
-129 93 -238 135 -71 27 -83 36 -69 50 7 7 20 5 41 -5 17 -8 57 -20 89 -26 58
-11 172 -51 209 -75 30 -19 162 -28 212 -15 45 12 134 68 141 89 5 16 -23 15
-40 -2 -22 -21 -148 -50 -188 -42 -25 4 -57 27 -111 79 -70 67 -80 73 -148 89
-78 18 -148 48 -144 61 4 13 310 20 318 8 10 -17 84 -33 117 -26 l30 7 -43 25
c-24 13 -57 37 -74 52 -40 37 -89 58 -155 65 -62 8 -81 19 -54 34 32 17 100 5
185 -33 116 -51 204 -53 229 -5 11 21 4 25 -75 35 -53 7 -69 13 -133 58 -22
16 -75 37 -118 48 -78 19 -114 40 -114 65 0 8 8 12 18 10 63 -13 83 -20 93
-32 14 -18 69 -19 69 -1 0 7 -9 18 -20 24 -10 7 -24 22 -31 34 -11 21 -10 21
26 15 21 -4 48 -14 61 -22 19 -13 39 -18 91 -23 7 0 19 -13 27 -29 20 -39 89
-76 116 -62 23 12 18 30 -8 30 -10 0 -33 25 -55 59 -45 70 -103 124 -171 158
-28 14 -73 50 -100 80 -27 30 -60 59 -73 64 -16 6 -23 15 -21 27 5 23 47 19
154 -14 59 -18 87 -31 98 -49 37 -56 177 -86 242 -52 l26 14 -27 17 c-14 10
-36 19 -48 22 -12 2 -37 7 -55 10 -23 5 -43 19 -67 52 -19 25 -35 51 -35 58 0
18 -69 94 -85 94 -7 0 -15 4 -17 8 -1 4 -23 20 -48 34 -60 35 -134 102 -129
116 2 7 25 -5 54 -28 28 -23 75 -55 105 -72 53 -30 101 -66 165 -124 36 -32
111 -68 125 -59 12 7 14 35 3 35 -18 0 -61 49 -82 93 -13 26 -43 64 -67 84
-24 20 -47 48 -52 63 -18 49 -86 145 -141 197 -31 29 -59 53 -63 53 -14 0 -8
30 6 30 7 0 47 -15 87 -33 46 -21 93 -34 124 -36 28 -1 64 -9 80 -17 52 -26
114 -36 151 -24 40 14 36 36 -9 46 -46 10 -277 121 -304 146 -36 33 -30 48 12
34 19 -7 59 -11 87 -10 190 7 174 9 237 -30 65 -40 80 -44 77 -21 -4 25 -76
84 -141 116 -48 23 -79 30 -154 35 l-94 6 -44 48 c-24 27 -68 65 -98 85 -30
20 -55 43 -55 51 0 19 8 18 67 -11 87 -42 175 -67 248 -73 67 -4 71 -6 100
-43 17 -20 45 -46 62 -55 95 -53 28 81 -83 165 -46 35 -82 54 -120 62 -42 10
-62 21 -87 50 -47 53 -117 97 -176 111 l-51 12 25 26 c17 18 56 36 115 54 92
29 122 48 102 68 -18 18 -85 25 -236 22 l-147 -2 -37 37 c-62 63 -153 101
-257 108 -83 6 -90 8 -114 36 -30 36 -102 109 -148 151 l-31 28 -31 -53z"/>
<path d="M3232 7258 c-7 -7 -12 -22 -12 -35 0 -13 -7 -26 -15 -29 -21 -8 -19
-53 3 -61 9 -4 28 -15 41 -25 15 -11 40 -18 69 -18 l45 0 -6 36 c-4 22 -23 56
-52 90 -50 58 -54 61 -73 42z"/>
<path d="M3291 2769 c-19 -18 -22 -28 -17 -63 26 -187 122 -454 243 -671 30
-55 64 -116 75 -135 11 -20 47 -74 80 -120 70 -98 78 -117 67 -147 -7 -19 -17
-23 -51 -24 -98 -3 -213 4 -278 16 -14 2 -45 7 -70 9 -60 8 -200 48 -277 80
-50 21 -72 25 -110 20 -75 -9 -140 -5 -203 11 -34 9 -128 18 -227 21 -155 5
-172 4 -215 -15 -38 -16 -48 -25 -48 -44 0 -14 7 -30 15 -37 8 -7 15 -17 15
-22 0 -39 156 -157 243 -183 74 -22 239 -7 329 30 10 4 25 -2 39 -16 17 -17
36 -23 78 -25 171 -8 251 -13 291 -19 172 -25 412 -95 518 -151 63 -34 106
-41 168 -28 24 5 34 17 57 66 35 75 32 96 -23 208 -56 112 -75 165 -107 295
-10 40 -11 252 -2 315 5 36 7 75 4 88 -3 13 -35 44 -74 73 -66 48 -69 52 -84
114 -27 107 -90 190 -221 287 -121 90 -173 106 -215 67z"/>
</g>
</svg>
